<?xml version="1.0" encoding="UTF-8"?>
<svg version="1.1" xmlns="http://www.w3.org/2000/svg" width="666" height="375">
<path d="M0 0 C11.15339542 -0.04648895 22.30676752 -0.08195301 33.46024036 -0.10362434 C38.64011386 -0.11402928 43.81992071 -0.12812797 48.99975586 -0.15087891 C54.00534908 -0.17272514 59.01087849 -0.18459333 64.01651573 -0.18975449 C65.91932872 -0.19342919 67.82213851 -0.20060457 69.72492409 -0.21146011 C88.85949375 -0.316211 88.85949375 -0.316211 98 2 C98 2.66 98 3.32 98 4 C98.86625 4.103125 99.7325 4.20625 100.625 4.3125 C104.16683123 5.03398414 106.84312042 6.27123261 110 8 C110 8.66 110 9.32 110 10 C110.721875 10.2475 111.44375 10.495 112.1875 10.75 C115.27606582 12.12269592 117.51011418 13.72353296 120 16 C120 16.66 120 17.32 120 18 C121.485 18.495 121.485 18.495 123 19 C138.43592361 35.07130061 142.37827571 55.56390787 142.1484375 76.92578125 C141.83795376 90.88482481 137.09772562 103.07036117 130 115 C129.67 115.66 129.34 116.32 129 117 C128.34 117 127.68 117 127 117 C126.731875 117.5775 126.46375 118.155 126.1875 118.75 C124.97070811 121.05550043 123.69666121 123.02056192 122 125 C121.34 125 120.68 125 120 125 C119.505 126.485 119.505 126.485 119 128 C107.05552071 138.02885525 93.92107992 143.18429463 78.33251953 143.11352539 C77.48308273 143.11367142 76.63364594 143.11381744 75.75846863 143.1139679 C72.96655677 143.11327437 70.17471263 143.10550826 67.3828125 143.09765625 C65.44082679 143.09579008 63.4988406 143.09436712 61.55685425 143.09336853 C56.45726206 143.08955902 51.35769856 143.07974214 46.25811768 143.06866455 C41.04968656 143.05841673 35.8412508 143.05386369 30.6328125 143.04882812 C20.42186243 143.03811843 10.2109336 143.02106086 0 143 C-0.02886751 138.85418113 -0.04675327 134.70838784 -0.0625 130.5625 C-0.07087891 129.37849609 -0.07925781 128.19449219 -0.08789062 126.97460938 C-0.09111328 125.84990234 -0.09433594 124.72519531 -0.09765625 123.56640625 C-0.10289307 122.52427979 -0.10812988 121.48215332 -0.11352539 120.40844727 C0 118 0 118 1 117 C3.35544348 116.89100435 5.68264601 116.8457826 8.0390625 116.84228516 C8.77577682 116.83720444 9.51249115 116.83212372 10.27153015 116.82688904 C11.87791745 116.8161597 13.48431994 116.80754965 15.09072876 116.80076981 C17.63893461 116.78899813 20.18696963 116.76954558 22.73510742 116.74765015 C29.98268882 116.68600652 37.23025719 116.63215057 44.47802734 116.59863281 C48.90785403 116.5775933 53.33737672 116.54220543 57.76702881 116.49787521 C59.45095214 116.48377607 61.13492935 116.47500661 62.81890869 116.47182083 C73.12054641 116.45028682 81.72104097 116.1285107 90.875 110.8125 C94 109 94 109 97 109 C97.495 107.515 97.495 107.515 98 106 C98.70125 105.62875 99.4025 105.2575 100.125 104.875 C107.25337081 100.22606251 113.09057778 91.06591188 115.25 82.875 C117.42108194 71.37413351 116.66686916 59.47451493 110.3125 49.4375 C109.87550781 48.81746094 109.43851562 48.19742188 108.98828125 47.55859375 C108 46 108 46 108 44 C107.34 44 106.68 44 106 44 C104.58318016 42.58318016 103.18943262 41.14311448 101.8125 39.6875 C92.16849947 30.47212172 80.66669719 25.81849346 67.29882812 25.68115234 C66.57589569 25.67110672 65.85296326 25.6610611 65.10812378 25.65071106 C62.74917301 25.62013781 60.39033431 25.60291696 58.03125 25.5859375 C56.38357598 25.56720496 54.73591133 25.54763002 53.08825684 25.5272522 C48.77459266 25.47614516 44.46089746 25.43640545 40.14709473 25.39910889 C35.73600728 25.35893412 31.32504651 25.30790356 26.9140625 25.2578125 C18.27612854 25.16130727 9.63813134 25.07682208 1 25 C-0.27861615 22.44276771 -0.11336609 20.63262898 -0.09765625 17.7734375 C-0.09443359 16.7421875 -0.09121094 15.7109375 -0.08789062 14.6484375 C-0.07951172 13.56820312 -0.07113281 12.48796875 -0.0625 11.375 C-0.05798828 10.28703125 -0.05347656 9.1990625 -0.04882812 8.078125 C-0.03701776 5.38536211 -0.02054778 2.69270812 0 0 Z " fill="#0A0A0A" transform="translate(125,100)"/>
<path d="M0 0 C8.20656014 0.0846461 16.41290995 0.17962184 24.61919403 0.28752708 C28.43033763 0.33732111 32.24145577 0.38365154 36.05273438 0.421875 C39.7357388 0.45894264 43.41852095 0.50535849 47.10133362 0.55806351 C48.50138929 0.57649405 49.9014924 0.59164315 51.30162048 0.60334396 C61.03708768 0.68756251 68.86804662 1.70051748 78 5.125 C78.94875 5.47820312 79.8975 5.83140625 80.875 6.1953125 C81.57625 6.46085938 82.2775 6.72640625 83 7 C83 7.66 83 8.32 83 9 C83.74765625 9.23847656 84.4953125 9.47695312 85.265625 9.72265625 C88.42045772 11.19641382 89.68930257 12.66102935 91.75 15.4375 C92.34296875 16.21996094 92.9359375 17.00242188 93.546875 17.80859375 C96.50649504 22.27189171 96.81328216 26.81731956 96 32 C91.67421702 42.99607431 83.0340049 47.23971459 72.87109375 52.01953125 C64.87249543 54.75102537 56.21389479 54.13094246 47.875 54.09765625 C46.51879936 54.0957878 45.16259804 54.09436592 43.80639648 54.09336853 C40.26204517 54.08957696 36.71773579 54.07977595 33.17340088 54.06866455 C29.54659594 54.05837762 25.91978412 54.05385541 22.29296875 54.04882812 C15.1952955 54.03815018 8.09765051 54.02111484 1 54 C0.09713249 50.91398919 -0.1216323 48.16638994 -0.11352539 44.95605469 C-0.11344986 43.95531921 -0.11337433 42.95458374 -0.11329651 41.92352295 C-0.10813522 40.85047913 -0.10297394 39.7774353 -0.09765625 38.671875 C-0.0962413 37.56773254 -0.09482635 36.46359009 -0.09336853 35.32598877 C-0.08777258 31.80063158 -0.07522079 28.27533798 -0.0625 24.75 C-0.05748448 22.35937592 -0.05292166 19.96875084 -0.04882812 17.578125 C-0.03780447 11.71872832 -0.02107033 5.8593687 0 0 Z " fill="#030303" transform="translate(125,144)"/>
<path d="M0 0 C5.94 0 11.88 0 18 0 C18.33 9.9 18.66 19.8 19 30 C20.32 29.34 21.64 28.68 23 28 C30.39978728 24.49820084 36.539656 22.47143065 44.609375 24.73046875 C51.2305523 27.13015579 55.41403119 29.88680196 58.6875 36.3125 C61.34353106 43.77468251 62.28784544 50.10354065 62.1953125 57.96875 C62.1924826 58.88966431 62.18965271 59.81057861 62.18673706 60.75939941 C62.17562775 63.67307052 62.15054078 66.58642331 62.125 69.5 C62.11495823 71.4869747 62.10583448 73.47395426 62.09765625 75.4609375 C62.07742848 80.30751011 62.03826261 85.15340277 62 90 C55.73 90.33 49.46 90.66 43 91 C43.05800781 88.2053125 43.11601563 85.410625 43.17578125 82.53125 C43.21485099 79.80406528 43.24516747 77.07691254 43.2746582 74.34960938 C43.29969777 72.46404917 43.33373999 70.57858502 43.37719727 68.69335938 C43.43831786 65.97241436 43.46631493 63.25275973 43.48828125 60.53125 C43.51408768 59.69758911 43.5398941 58.86392822 43.56648254 58.00500488 C43.56937206 51.8823108 41.95429889 47.71495811 38 43 C34.97951693 41.0637929 33.50859313 40.96886165 29.9375 41.1875 C26.94663189 42.01476139 25.36581226 43.05665422 23 45 C22.34 45 21.68 45 21 45 C19.37745047 50.73870149 18.67540709 55.92616926 18.5859375 61.875 C18.56657135 62.68493408 18.5472052 63.49486816 18.5272522 64.3293457 C18.46803998 66.88612734 18.42130754 69.44295545 18.375 72 C18.33676633 73.7461121 18.29771157 75.49220642 18.2578125 77.23828125 C18.16085962 81.49208873 18.08083105 85.74573426 18 90 C12.06 90 6.12 90 0 90 C0 60.3 0 30.6 0 0 Z " fill="#070707" transform="translate(470,153)"/>
<path d="M0 0 C4.98826325 4.11254592 6.94878411 8.09087117 7.7578125 14.44921875 C7.88897015 17.9264937 7.87430519 21.39958697 7.85546875 24.87890625 C7.8540538 25.86923859 7.85263885 26.85957092 7.85118103 27.87991333 C7.84560502 31.02804648 7.83305692 34.17610727 7.8203125 37.32421875 C7.8152944 39.46484272 7.81073204 41.60546781 7.80664062 43.74609375 C7.79564344 48.98049643 7.77839534 54.21484534 7.7578125 59.44921875 C2.4778125 59.44921875 -2.8021875 59.44921875 -8.2421875 59.44921875 C-8.9021875 57.79921875 -9.5621875 56.14921875 -10.2421875 54.44921875 C-11.2115625 55.23296875 -12.1809375 56.01671875 -13.1796875 56.82421875 C-20.87446213 62.24134009 -29.22353917 61.96072406 -38.2421875 60.44921875 C-43.58007207 59.10486264 -48.11840727 55.99861681 -51.2421875 51.44921875 C-52.99782611 45.15641771 -53.76079711 36.66524435 -50.7421875 30.69921875 C-49.9996875 29.58546875 -49.9996875 29.58546875 -49.2421875 28.44921875 C-48.5821875 28.44921875 -47.9221875 28.44921875 -47.2421875 28.44921875 C-47.2421875 27.78921875 -47.2421875 27.12921875 -47.2421875 26.44921875 C-39.34285223 21.44299527 -32.83249569 20.80283077 -23.6171875 21.13671875 C-22.42222656 21.15927734 -21.22726562 21.18183594 -19.99609375 21.20507812 C-17.07677761 21.26346445 -14.16017721 21.34530174 -11.2421875 21.44921875 C-11.52707031 20.17046875 -11.81195313 18.89171875 -12.10546875 17.57421875 C-12.26571533 16.85492188 -12.42596191 16.135625 -12.59106445 15.39453125 C-13.14665384 13.21146979 -13.14665384 13.21146979 -15.4296875 11.44921875 C-19.96156328 9.83788514 -23.54928134 9.71819109 -27.9921875 11.63671875 C-30.41574941 13.30399824 -30.41574941 13.30399824 -31.37890625 16.0390625 C-33.2421875 18.44921875 -33.2421875 18.44921875 -36.96484375 18.97265625 C-38.4121073 18.94877839 -39.85912654 18.89835008 -41.3046875 18.82421875 C-42.03751953 18.81003906 -42.77035156 18.79585937 -43.52539062 18.78125 C-48.87274508 18.63393996 -48.87274508 18.63393996 -51.2421875 17.44921875 C-50.70145855 10.96047132 -49.29806362 5.27002748 -44.36328125 0.71484375 C-30.97279048 -8.96272024 -13.67012925 -9.2148847 0 0 Z M-31.2421875 34.44921875 C-32.8461478 37.17679611 -32.8461478 37.17679611 -33.2421875 40.44921875 C-31.93351686 43.39372769 -31.14815887 44.99623306 -28.2421875 46.44921875 C-24.53259301 47.04275387 -22.1842007 47.10228109 -19.0390625 44.921875 C-17.0336319 43.158106 -15.11428695 41.35328087 -13.2421875 39.44921875 C-12.9121875 39.11921875 -12.5821875 38.78921875 -12.2421875 38.44921875 C-12.20154918 36.7830476 -12.1994665 35.1153378 -12.2421875 33.44921875 C-14.65892974 33.42216567 -17.0753669 33.40235437 -19.4921875 33.38671875 C-20.17410156 33.37833984 -20.85601562 33.36996094 -21.55859375 33.36132812 C-26.50946948 33.25049204 -26.50946948 33.25049204 -31.2421875 34.44921875 Z " fill="#0E0E0E" transform="translate(325.2421875,183.55078125)"/>
<path d="M0 0 C0.78632813 0.30550781 1.57265625 0.61101562 2.3828125 0.92578125 C9.20386315 4.10508452 12.91271728 9.22539842 16 16 C16.56316668 18.70698607 16.4806347 20.2363505 16 23 C13.63651668 25.36348332 7.65529853 24.48691872 4.36767578 24.53442383 C-1.42735502 24.41881682 -1.42735502 24.41881682 -3.9921875 22.54296875 C-5.125 20.6875 -5.125 20.6875 -6.04296875 18.765625 C-7.21662256 16.60035347 -8.22798532 15.97838486 -10.4375 14.9375 C-14.56928476 13.85018822 -16.18112071 14.21785633 -20 16 C-20.67160156 16.27328125 -21.34320313 16.5465625 -22.03515625 16.828125 C-25.7376915 19.03639652 -26.79252913 23.02463436 -28 27 C-28.87430289 32.86071165 -28.02090174 36.83929286 -25 42 C-25 42.66 -25 43.32 -25 44 C-24.34 44 -23.68 44 -23 44 C-23 44.66 -23 45.32 -23 46 C-18.32089287 47.47482061 -15.01807627 48.2670364 -10.1875 47 C-6.79404173 45.24938081 -6.79404173 45.24938081 -5.41015625 41.8984375 C-3 39 -3 39 -0.90112305 38.51269531 C1.67257525 38.40899788 4.17861489 38.47686999 6.75 38.625 C7.63816406 38.65207031 8.52632813 38.67914063 9.44140625 38.70703125 C11.63008395 38.77763376 13.81379568 38.87614473 16 39 C16.45266618 46.68589449 13.92506365 50.34874549 9 56 C1.32696458 63.17229991 -6.66468137 64.8825532 -17 65 C-26.36129878 64.15264106 -34.2820109 60.55413571 -41 54 C-41.875 51.6875 -41.875 51.6875 -42 50 C-42.66 50 -43.32 50 -44 50 C-48.36356868 39.18847939 -49.96819199 28.68601646 -46.125 17.43359375 C-44.03486261 12.91222017 -41.29763941 8.73467596 -38 5 C-37.34 5 -36.68 5 -36 5 C-35.67 4.34 -35.34 3.68 -35 3 C-33.26324521 2.07851523 -31.48461259 1.23489433 -29.6875 0.4375 C-28.72199219 0.00308594 -27.75648438 -0.43132812 -26.76171875 -0.87890625 C-17.73914493 -4.54153523 -8.9299955 -3.49496629 0 0 Z " fill="#0F0F0F" transform="translate(441,180)"/>
<path d="M0 0 C0.94148531 2.82445592 1.07311695 4.14171618 0.87890625 7.01171875 C0.83056641 7.76904297 0.78222656 8.52636719 0.73242188 9.30664062 C0.67634766 10.09232422 0.62027344 10.87800781 0.5625 11.6875 C0.51029297 12.48478516 0.45808594 13.28207031 0.40429688 14.10351562 C0.27480978 16.06936522 0.13809959 18.03473665 0 20 C-0.95261719 20.08636719 -1.90523438 20.17273438 -2.88671875 20.26171875 C-4.14097656 20.40222656 -5.39523437 20.54273438 -6.6875 20.6875 C-7.92886719 20.81511719 -9.17023438 20.94273437 -10.44921875 21.07421875 C-14.63114746 22.1645566 -16.16140553 23.83407212 -19 27 C-19.66 27 -20.32 27 -21 27 C-21.33 39.87 -21.66 52.74 -22 66 C-28.27 66 -34.54 66 -41 66 C-41 44.88 -41 23.76 -41 2 C-35.39 2 -29.78 2 -24 2 C-23.67 3.98 -23.34 5.96 -23 8 C-22.34 8.33 -21.68 8.66 -21 9 C-20.67 8.01 -20.34 7.02 -20 6 C-17.890625 4.6484375 -17.890625 4.6484375 -15.25 3.375 C-14.38890625 2.94960937 -13.5278125 2.52421875 -12.640625 2.0859375 C-8.38913539 0.33754384 -4.57276146 -0.13065033 0 0 Z " fill="#0F0F0F" transform="translate(387,177)"/>
<path d="M0 0 C0.94875 0.515625 1.8975 1.03125 2.875 1.5625 C3.865 1.8925 4.855 2.2225 5.875 2.5625 C9.55000879 8.68751465 9.18480184 14.57474743 8.875 21.5625 C6.5 22.1875 6.5 22.1875 3.875 22.5625 C1.51546906 20.20296906 1.38358587 18.78354383 0.875 15.5625 C-0.115 16.2225 -1.105 16.8825 -2.125 17.5625 C-4.71875 17.79296875 -4.71875 17.79296875 -7.625 17.75 C-8.5840625 17.74355469 -9.543125 17.73710937 -10.53125 17.73046875 C-13.125 17.5625 -13.125 17.5625 -16.125 16.5625 C-16.125 15.9025 -16.125 15.2425 -16.125 14.5625 C-17.115 14.2325 -18.105 13.9025 -19.125 13.5625 C-19.125 12.9025 -19.125 12.2425 -19.125 11.5625 C-19.785 11.2325 -20.445 10.9025 -21.125 10.5625 C-21.5390625 8.27734375 -21.5390625 8.27734375 -21.75 5.5 C-21.82476563 4.58089844 -21.89953125 3.66179687 -21.9765625 2.71484375 C-22.02554688 2.00457031 -22.07453125 1.29429687 -22.125 0.5625 C-15.4846803 -2.53549302 -6.80347333 -2.96561658 0 0 Z M-14.125 5.5625 C-14.4023501 8.48449528 -14.4023501 8.48449528 -13 10.25 C-10.36040902 12.09771368 -8.26695927 11.77196395 -5.125 11.5625 C-5.125 10.5725 -5.125 9.5825 -5.125 8.5625 C-7.40337542 6.28412458 -8.63312237 5.59603711 -11.875 5.375 C-12.6175 5.436875 -13.36 5.49875 -14.125 5.5625 Z " fill="#141414" transform="translate(585.125,238.4375)"/>
<path d="M0 0 C0.94875 0.515625 1.8975 1.03125 2.875 1.5625 C3.865 1.8925 4.855 2.2225 5.875 2.5625 C9.55000879 8.68751465 9.18480184 14.57474743 8.875 21.5625 C6.5 22.1875 6.5 22.1875 3.875 22.5625 C1.875 20.5625 1.875 20.5625 1.6796875 17.5234375 C1.70289063 16.34007812 1.72609375 15.15671875 1.75 13.9375 C1.76804687 12.74898437 1.78609375 11.56046875 1.8046875 10.3359375 C1.82789063 9.42070312 1.85109375 8.50546875 1.875 7.5625 C1.215 7.2325 0.555 6.9025 -0.125 6.5625 C-0.455 7.5525 -0.785 8.5425 -1.125 9.5625 C-2.115 8.9025 -3.105 8.2425 -4.125 7.5625 C-4.125 6.9025 -4.125 6.2425 -4.125 5.5625 C-5.23875 5.418125 -6.3525 5.27375 -7.5 5.125 C-11.125 4.5625 -11.125 4.5625 -13.125 3.5625 C-12.795 2.5725 -12.465 1.5825 -12.125 0.5625 C-12.888125 0.76875 -13.65125 0.975 -14.4375 1.1875 C-17.125 1.5625 -17.125 1.5625 -20.125 -0.4375 C-14.00831548 -2.47639484 -5.97298044 -2.62759869 0 0 Z " fill="#1E1E1E" transform="translate(585.125,238.4375)"/>
<path d="M0 0 C2.625 0.375 2.625 0.375 5 1 C6.0679179 4.36314444 5.9736012 7.12956636 5.625 10.625 C5.53476562 11.58664063 5.44453125 12.54828125 5.3515625 13.5390625 C5 16 5 16 4 18 C-0.875 17.125 -0.875 17.125 -2 16 C-2.12557162 13.69006618 -2.17575729 11.37581464 -2.1875 9.0625 C-2.20167969 7.79535156 -2.21585938 6.52820313 -2.23046875 5.22265625 C-2 2 -2 2 0 0 Z " fill="#0F0F0F" transform="translate(602,243)"/>
<path d="M0 0 C0.144375 0.639375 0.28875 1.27875 0.4375 1.9375 C0.81007181 3.97545146 0.81007181 3.97545146 2 5 C2.66 4.01 3.32 3.02 4 2 C4.66 2 5.32 2 6 2 C6.1875 4.375 6.1875 4.375 6 7 C2.63000798 9.24666134 1.43894538 9.2457371 -2.5 9.1875 C-3.4590625 9.18105469 -4.418125 9.17460937 -5.40625 9.16796875 C-8 9 -8 9 -11 8 C-11 7.34 -11 6.68 -11 6 C-11.99 5.67 -12.98 5.34 -14 5 C-13.34 4.67 -12.68 4.34 -12 4 C-12 3.01 -12 2.02 -12 1 C-11.34 1 -10.68 1 -10 1 C-10 1.66 -10 2.32 -10 3 C-7.03 3 -4.06 3 -1 3 C-0.67 2.01 -0.34 1.02 0 0 Z " fill="#1C1C1C" transform="translate(580,247)"/>
<path d="M0 0 C1.1446875 -0.01417969 2.289375 -0.02835938 3.46875 -0.04296875 C6.5 0.1875 6.5 0.1875 9.5 2.1875 C8.51 2.6825 8.51 2.6825 7.5 3.1875 C7.5 4.5075 7.5 5.8275 7.5 7.1875 C-0.25 6.3125 -0.25 6.3125 -2.5 5.1875 C-2.17 4.1975 -1.84 3.2075 -1.5 2.1875 C-2.263125 2.39375 -3.02625 2.6 -3.8125 2.8125 C-6.5 3.1875 -6.5 3.1875 -9.5 1.1875 C-6.15109379 0.07119793 -3.52460739 0.01984576 0 0 Z " fill="#3D3D3D" transform="translate(574.5,236.8125)"/>
<path d="M0 0 C0.33 0 0.66 0 1 0 C1 3.63 1 7.26 1 11 C-0.65 11.33 -2.3 11.66 -4 12 C-6 10 -6 10 -6.3125 7 C-6.209375 6.01 -6.10625 5.02 -6 4 C-5.01 3.34 -4.02 2.68 -3 2 C-3 2.66 -3 3.32 -3 4 C-2.34 4 -1.68 4 -1 4 C-0.67 2.68 -0.34 1.36 0 0 Z " fill="#202020" transform="translate(593,249)"/>
<path d="M0 0 C0.66 0 1.32 0 2 0 C2.1875 2.375 2.1875 2.375 2 5 C-1.42094242 7.28062828 -2.68187222 7.21925007 -6.6875 7.125 C-8.17830078 7.09792969 -8.17830078 7.09792969 -9.69921875 7.0703125 C-10.45847656 7.04710937 -11.21773437 7.02390625 -12 7 C-11.67 6.01 -11.34 5.02 -11 4 C-10.071875 4.020625 -9.14375 4.04125 -8.1875 4.0625 C-4.97713989 4.15769604 -4.97713989 4.15769604 -2 3 C-1.34 2.01 -0.68 1.02 0 0 Z " fill="#525252" transform="translate(584,249)"/>
<path d="M0 0 C0.598125 0.20625 1.19625 0.4125 1.8125 0.625 C2.4375 2.4375 2.4375 2.4375 2.8125 4.625 C1.8225 6.11 1.8225 6.11 0.8125 7.625 C-1.625 6.875 -1.625 6.875 -4.1875 5.625 C-5 3.5 -5 3.5 -5.1875 1.625 C-2.1875 -0.375 -2.1875 -0.375 0 0 Z " fill="#121212" transform="translate(604.1875,222.375)"/>
<path d="M0 0 C1.65 0 3.3 0 5 0 C7.21538462 5.41538462 7.21538462 5.41538462 6.125 8.375 C5.75375 8.91125 5.3825 9.4475 5 10 C3.68 10 2.36 10 1 10 C0.67 9.01 0.34 8.02 0 7 C0.66 6.01 1.32 5.02 2 4 C1.34 2.68 0.68 1.36 0 0 Z " fill="#313131" transform="translate(587,243)"/>
<path d="M0 0 C1.65 0 3.3 0 5 0 C5.33 0.99 5.66 1.98 6 3 C6.66 3 7.32 3 8 3 C8 3.66 8 4.32 8 5 C7.34 5 6.68 5 6 5 C6 5.66 6 6.32 6 7 C4.35 6.67 2.7 6.34 1 6 C0.67 4.02 0.34 2.04 0 0 Z " fill="#191919" transform="translate(544,256)"/>
<path d="M0 0 C0.33 0 0.66 0 1 0 C1 3.63 1 7.26 1 11 C-0.65 11.33 -2.3 11.66 -4 12 C-4.33 11.01 -4.66 10.02 -5 9 C-3.68 8.67 -2.36 8.34 -1 8 C-1.020625 6.865625 -1.04125 5.73125 -1.0625 4.5625 C-1 1 -1 1 0 0 Z " fill="#0F0F0F" transform="translate(593,249)"/>
<path d="M0 0 C0.33 0 0.66 0 1 0 C1.33 2.31 1.66 4.62 2 7 C2.66 7 3.32 7 4 7 C4.33 8.32 4.66 9.64 5 11 C1.125 10.125 1.125 10.125 0 9 C-0.07179964 7.48071962 -0.08392007 5.95832518 -0.0625 4.4375 C-0.05347656 3.61121094 -0.04445313 2.78492188 -0.03515625 1.93359375 C-0.02355469 1.29550781 -0.01195312 0.65742188 0 0 Z " fill="#767676" transform="translate(600,250)"/>
<path d="M0 0 C0.66 0 1.32 0 2 0 C2 0.99 2 1.98 2 3 C2.99 3.33 3.98 3.66 5 4 C5 4.66 5 5.32 5 6 C6.65 6 8.3 6 10 6 C10 6.33 10 6.66 10 7 C3.25 7.125 3.25 7.125 1 6 C0.375 2.9375 0.375 2.9375 0 0 Z " fill="#080808" transform="translate(569,244)"/>
<path d="M0 0 C1.32 0.33 2.64 0.66 4 1 C4.1875 3.8125 4.1875 3.8125 4 7 C3.01 7.99 2.02 8.98 1 10 C0.67 6.7 0.34 3.4 0 0 Z " fill="#0B0B0B" transform="translate(600,245)"/>
<path d="M0 0 C1.67542976 0.28604898 3.34385343 0.61781233 5 1 C5.33 1.99 5.66 2.98 6 4 C5.01 4.33 4.02 4.66 3 5 C2.01 6.485 2.01 6.485 1 8 C1.04125 7.21625 1.0825 6.4325 1.125 5.625 C1.28728734 2.83883881 1.28728734 2.83883881 -1 1 C-0.67 0.67 -0.34 0.34 0 0 Z " fill="#4E4E4E" transform="translate(602,243)"/>
<path d="M0 0 C3.62528568 -0.20140476 5.86501708 0.14223235 9 2 C9 2.66 9 3.32 9 4 C7.35 4.33 5.7 4.66 4 5 C3.67 4.01 3.34 3.02 3 2 C2.01 1.67 1.02 1.34 0 1 C0 0.67 0 0.34 0 0 Z " fill="#121212" transform="translate(582,239)"/>
<path d="M0 0 C2.31 0.33 4.62 0.66 7 1 C7.33 2.65 7.66 4.3 8 6 C7.67 5.34 7.34 4.68 7 4 C6.071875 3.7834375 6.071875 3.7834375 5.125 3.5625 C2.63289608 2.90282543 1.6670554 1.91711371 0 0 Z " fill="#070707" transform="translate(574,243)"/>
<path d="" fill="#000000" transform="translate(0,0)"/>
</svg>
